<svg width="62" height="65" viewBox="0 0 62 65" fill="none" xmlns="http://www.w3.org/2000/svg">
<path fill-rule="evenodd" clip-rule="evenodd" d="M34.7863 16.3223C34.2386 18.093 33.8032 19.9525 33.4568 21.7696C33.0754 23.7701 31.2181 25.1826 29.1906 24.9044C27.1631 24.6262 25.7349 22.7631 26.1061 20.7607C26.5032 18.6185 27.0215 16.3546 27.7022 14.1538C28.7682 10.7072 30.3255 7.10139 32.6929 4.39033C35.1734 1.5497 38.6754 -0.414272 43.1666 0.0747624C47.3624 0.53164 51.7547 3.07342 56.4411 7.47665C59.9724 10.7945 61.8106 14.6048 61.9861 18.5986C62.1583 22.5163 60.7117 26.1475 58.5592 29.1812C55.0373 34.145 49.2251 38.098 43.2808 39.9644C41.329 40.5772 39.4095 39.2025 39.073 37.194C38.7365 35.1856 40.116 33.3027 42.0362 32.598C46.1591 31.0849 50.1508 28.2455 52.504 24.929C53.9847 22.842 54.6635 20.7894 54.5814 18.9207C54.5026 17.1282 53.7066 15.0498 51.352 12.8375C47.1442 8.88394 44.207 7.60578 42.3602 7.40468C40.8086 7.23573 39.5547 7.77573 38.2882 9.22615C36.9085 10.8061 35.7276 13.2785 34.7863 16.3223ZM39.073 24.9044C40.5728 26.29 40.6596 28.6227 39.2669 30.1148L28.2514 41.9167C26.8587 43.4088 24.5139 43.4952 23.0141 42.1097C21.5142 40.7242 21.4274 38.3914 22.8201 36.8993L33.8356 25.0974C35.2283 23.6053 37.5732 23.5189 39.073 24.9044ZM7.44819 50.7286C7.61478 52.2928 8.37412 53.7768 10.2461 55.0184C13.4139 57.1194 16.0808 57.7316 18.2113 57.6118C20.3458 57.4919 22.2872 56.6185 23.9754 55.1538C26.5478 52.9219 28.3341 49.4756 28.9743 46.0517C29.3487 44.0499 30.8553 42.2601 32.8965 42.1097C34.9376 41.9593 36.7403 43.4932 36.5323 45.5189C35.956 51.1324 33.2222 56.915 28.8469 60.711C26.1086 63.0868 22.6455 64.7481 18.6293 64.9738C14.609 65.1997 10.3788 63.9684 6.13479 61.1537C2.48482 58.7329 0.483176 55.3133 0.0776424 51.5055C-0.313644 47.8315 0.806902 44.1277 2.69765 40.8903C5.91524 35.3811 11.7993 30.4614 18.8037 28.2719C20.7563 27.6616 22.6776 29.0407 23.0141 31.0492C23.3505 33.0577 21.9679 34.931 20.0492 35.6398C15.3026 37.3932 11.2873 40.8602 9.10621 44.5947C7.76352 46.8937 7.26734 49.0305 7.44819 50.7286Z" fill="white"/>
</svg>
