<svg width="64" height="53" viewBox="0 0 64 53" fill="none" xmlns="http://www.w3.org/2000/svg">
<path d="M57.791 13.0056C53.7313 57.2346 15.2836 56.9968 0 46.534C10.1254 47.1044 16.9552 42.9673 19.1045 40.8275C10.5075 40.1866 8.74808 34.9328 7.47445 32C8.19087 32.3102 11.9124 32.7007 13.3139 31.7664C4.6175 29.877 3.20093 22.8036 2.80292 18.9197C5.37226 19.854 7.16418 20.219 8.35821 20.1397C0.143284 14.2425 2.54726 6.2686 4.77612 3.0188C12.991 13.4816 26.0299 16.2555 31.5224 16.3346C29.6119 -4.3528 50.1495 -1.73664 53.9701 4.44601C53.9701 4.44601 57.0746 4.44597 62.0896 1.35372C61.6119 4.68288 58.5075 7.06069 56.597 8.48744C58.746 8.48744 61.3725 7.53651 63.999 6.58556L64 6.58521C61.5164 10.3899 58.8259 12.4507 57.791 13.0056Z" fill="#1DA1F2"/>
</svg>
